<svg width="79" height="63" viewBox="0 0 79 63" fill="none" xmlns="http://www.w3.org/2000/svg">
<path d="M8.89453 20.7109C8.05859 21.7266 6.90234 22.2344 5.42578 22.2344C4.06641 22.2344 3.02734 21.8438 2.30859 21.0625C1.59766 20.2812 1.23438 19.1367 1.21875 17.6289V9.32031H4.60547V17.5117C4.60547 18.832 5.20703 19.4922 6.41016 19.4922C7.55859 19.4922 8.34766 19.0938 8.77734 18.2969V9.32031H12.1758V22H8.98828L8.89453 20.7109ZM26.1445 15.7773C26.1445 17.7305 25.6992 19.2969 24.8086 20.4766C23.9258 21.6484 22.7305 22.2344 21.2227 22.2344C19.9414 22.2344 18.9062 21.7891 18.1172 20.8984V26.875H14.7305V9.32031H17.8711L17.9883 10.5625C18.8086 9.57812 19.8789 9.08594 21.1992 9.08594C22.7617 9.08594 23.9766 9.66406 24.8438 10.8203C25.7109 11.9766 26.1445 13.5703 26.1445 15.6016V15.7773ZM22.7578 15.5312C22.7578 14.3516 22.5469 13.4414 22.125 12.8008C21.7109 12.1602 21.1055 11.8398 20.3086 11.8398C19.2461 11.8398 18.5156 12.2461 18.1172 13.0586V18.25C18.5312 19.0859 19.2695 19.5039 20.332 19.5039C21.9492 19.5039 22.7578 18.1797 22.7578 15.5312ZM35.1211 18.4961C35.1211 18.082 34.9141 17.7578 34.5 17.5234C34.0938 17.2812 33.4375 17.0664 32.5312 16.8789C29.5156 16.2461 28.0078 14.9648 28.0078 13.0352C28.0078 11.9102 28.4727 10.9727 29.4023 10.2227C30.3398 9.46484 31.5625 9.08594 33.0703 9.08594C34.6797 9.08594 35.9648 9.46484 36.9258 10.2227C37.8945 10.9805 38.3789 11.9648 38.3789 13.1758H34.9922C34.9922 12.6914 34.8359 12.293 34.5234 11.9805C34.2109 11.6602 33.7227 11.5 33.0586 11.5C32.4883 11.5 32.0469 11.6289 31.7344 11.8867C31.4219 12.1445 31.2656 12.4727 31.2656 12.8711C31.2656 13.2461 31.4414 13.5508 31.793 13.7852C32.1523 14.0117 32.7539 14.2109 33.5977 14.3828C34.4414 14.5469 35.1523 14.7344 35.7305 14.9453C37.5195 15.6016 38.4141 16.7383 38.4141 18.3555C38.4141 19.5117 37.918 20.4492 36.9258 21.168C35.9336 21.8789 34.6523 22.2344 33.082 22.2344C32.0195 22.2344 31.0742 22.0469 30.2461 21.6719C29.4258 21.2891 28.7812 20.7695 28.3125 20.1133C27.8438 19.4492 27.6094 18.7344 27.6094 17.9688H30.8203C30.8516 18.5703 31.0742 19.0312 31.4883 19.3516C31.9023 19.6719 32.457 19.832 33.1523 19.832C33.8008 19.832 34.2891 19.7109 34.6172 19.4688C34.9531 19.2188 35.1211 18.8945 35.1211 18.4961ZM44.6602 6.20312V9.32031H46.8281V11.8047H44.6602V18.1328C44.6602 18.6016 44.75 18.9375 44.9297 19.1406C45.1094 19.3438 45.4531 19.4453 45.9609 19.4453C46.3359 19.4453 46.668 19.418 46.957 19.3633V21.9297C46.293 22.1328 45.6094 22.2344 44.9062 22.2344C42.5312 22.2344 41.3203 21.0352 41.2734 18.6367V11.8047H39.4219V9.32031H41.2734V6.20312H44.6602ZM53.4492 17.207L55.793 9.32031H59.4258L54.3281 23.9688L54.0469 24.6367C53.2891 26.293 52.0391 27.1211 50.2969 27.1211C49.8047 27.1211 49.3047 27.0469 48.7969 26.8984V24.332L49.3125 24.3438C49.9531 24.3438 50.4297 24.2461 50.7422 24.0508C51.0625 23.8555 51.3125 23.5312 51.4922 23.0781L51.8906 22.0352L47.4492 9.32031H51.0938L53.4492 17.207ZM64.3359 22H60.9375V4H64.3359V22ZM72.9727 22.2344C71.1133 22.2344 69.5977 21.6641 68.4258 20.5234C67.2617 19.3828 66.6797 17.8633 66.6797 15.9648V15.6367C66.6797 14.3633 66.9258 13.2266 67.418 12.2266C67.9102 11.2188 68.6055 10.4453 69.5039 9.90625C70.4102 9.35938 71.4414 9.08594 72.5977 9.08594C74.332 9.08594 75.6953 9.63281 76.6875 10.7266C77.6875 11.8203 78.1875 13.3711 78.1875 15.3789V16.7617H70.1133C70.2227 17.5898 70.5508 18.2539 71.0977 18.7539C71.6523 19.2539 72.3516 19.5039 73.1953 19.5039C74.5 19.5039 75.5195 19.0312 76.2539 18.0859L77.918 19.9492C77.4102 20.668 76.7227 21.2305 75.8555 21.6367C74.9883 22.0352 74.0273 22.2344 72.9727 22.2344ZM72.5859 11.8281C71.9141 11.8281 71.3672 12.0547 70.9453 12.5078C70.5312 12.9609 70.2656 13.6094 70.1484 14.4531H74.8594V14.1836C74.8438 13.4336 74.6406 12.8555 74.25 12.4492C73.8594 12.0352 73.3047 11.8281 72.5859 11.8281Z" fill="white"/>
<path d="M49.1994 45.4772C49.1682 49.8866 46.7027 54.1127 42.3158 57.276C37.929 60.4393 31.9588 62.2963 25.6476 62.4604C19.3363 62.6246 13.1701 61.0833 8.43216 58.1573C3.69418 55.2313 0.749336 51.146 0.210421 46.7514C-0.328495 42.3568 1.58003 37.9915 5.53884 34.5639C9.49765 31.1362 15.2018 28.9102 21.4644 28.3491C27.727 27.788 34.0656 28.9349 39.1612 31.5513C44.2567 34.1677 47.7169 38.0519 48.8215 42.3958L43.6023 43.032C42.7363 39.6265 40.0236 36.5813 36.0287 34.5301C32.0339 32.4789 27.0645 31.5797 22.1548 32.0196C17.245 32.4596 12.773 34.2047 9.66939 36.8919C6.56575 39.5792 5.0695 43.0015 5.492 46.4467C5.9145 49.892 8.22321 53.0949 11.9377 55.3888C15.6522 57.6827 20.4864 58.8911 25.4343 58.7624C30.3822 58.6337 35.0628 57.1779 38.502 54.6979C41.9411 52.2179 43.8741 48.9047 43.8986 45.4478L49.1994 45.4772Z" fill="white"/>
<path d="M28.6211 45.1289C28.7 40.72 31.2112 36.5177 35.6319 33.3965C40.0527 30.2754 46.0427 28.4757 52.3553 28.372C58.6679 28.2683 64.8171 29.8686 69.5231 32.8398C74.2292 35.8111 77.1296 39.9244 77.621 44.324C78.1123 48.7235 76.1567 53.0703 72.161 56.4599C68.1654 59.8495 62.4374 62.0207 56.1692 62.5219C49.9009 63.023 43.5751 61.8154 38.5081 59.1503C33.4411 56.4853 30.0232 52.568 28.9657 48.2138L34.1914 47.6276C35.0206 51.0412 37.7002 54.1123 41.6726 56.2016C45.645 58.291 50.6043 59.2378 55.5186 58.8449C60.4328 58.452 64.9234 56.7498 68.0559 54.0924C71.1884 51.435 72.7216 48.0272 72.3364 44.578C71.9512 41.1289 69.6773 37.904 65.9878 35.5746C62.2984 33.2452 57.4776 31.9906 52.5285 32.0719C47.5795 32.1532 42.8835 33.5641 39.4177 36.0111C35.9519 38.458 33.9832 41.7525 33.9213 45.209L28.6211 45.1289Z" fill="white"/>
</svg>
